<?xml version="1.0" encoding="utf-8"?>
<!-- Generator: Adobe Illustrator 27.5.0, SVG Export Plug-In . SVG Version: 6.00 Build 0)  -->
<svg version="1.1" id="Capa_1" xmlns="http://www.w3.org/2000/svg" xmlns:xlink="http://www.w3.org/1999/xlink" x="0px" y="0px"
	 viewBox="0 0 425.197 330.365" style="enable-background:new 0 0 425.197 330.365;" xml:space="preserve">
<g>
	<rect y="-0.001" style="fill:#5C1F5B;" width="425.197" height="330.365"/>
	<g>
		<path style="fill:#3E0735;" d="M304.498,174.681c0-71.424-57.9-129.324-129.324-129.324c-71.426,0-129.326,57.9-129.326,129.324
			c0,71.426,57.9,129.326,129.326,129.326C246.598,304.007,304.498,246.107,304.498,174.681z"/>
		<g>
			
				<ellipse transform="matrix(0.9732 -0.2298 0.2298 0.9732 -9.9902 84.6422)" style="fill:#3E0735;" cx="358.482" cy="85.222" rx="39.865" ry="39.865"/>
			<circle style="fill:#3E0735;" cx="358.482" cy="174.681" r="39.865"/>
			
				<ellipse transform="matrix(0.9732 -0.2298 0.2298 0.9732 -51.0976 89.4285)" style="fill:#3E0735;" cx="358.482" cy="264.142" rx="39.865" ry="39.865"/>
		</g>
	</g>
	<g>
		<path style="fill:#77C2E4;" d="M294.998,165.181c0-71.424-57.9-129.324-129.324-129.324c-71.426,0-129.326,57.9-129.326,129.324
			c0,71.426,57.9,129.326,129.326,129.326C237.098,294.507,294.998,236.607,294.998,165.181z"/>
		<g>
			
				<ellipse transform="matrix(0.9732 -0.2298 0.2298 0.9732 -8.0617 82.2054)" style="fill:#CCA2CB;" cx="348.982" cy="75.722" rx="39.865" ry="39.865"/>
			<circle style="fill:#7256A4;" cx="348.982" cy="165.181" r="39.865"/>
			
				<ellipse transform="matrix(0.9732 -0.2298 0.2298 0.9732 -49.1691 86.9917)" style="fill:#B167AA;" cx="348.982" cy="254.642" rx="39.865" ry="39.865"/>
		</g>
	</g>
</g>
<g>
	<path style="fill:#5C1F5B;" d="M367.24,249.153c0.223-0.426,0.475-0.908,0.688-1.383c0.424-0.947,0.92-2.371,0.377-3.793
		c-0.699-1.822-2.586-2.52-4.252-3.139c-0.865-0.32-1.848-0.686-2.234-1.094c-0.348-0.365-0.654-1.367-0.9-2.174
		c-0.531-1.74-1.133-3.703-2.982-4.525c-0.492-0.221-1.027-0.332-1.594-0.332c-1.314,0-2.557,0.578-3.758,1.137
		c-0.752,0.352-1.689,0.787-2.205,0.787c-0.58-0.014-1.506-0.498-2.322-0.928c-1.17-0.615-2.488-1.307-3.846-1.307
		c-0.467,0-0.916,0.082-1.334,0.242c-1.424,0.545-2.148,1.867-2.57,2.813c-0.213,0.477-0.402,0.988-0.568,1.438
		c-0.156,0.422-0.32,0.861-0.49,1.244c-0.215,0.48-0.418,0.814-0.602,0.988c-0.367,0.348-1.371,0.654-2.176,0.902
		c-1.74,0.533-3.703,1.133-4.527,2.979c-0.822,1.852,0.045,3.713,0.809,5.355c0.355,0.764,0.799,1.717,0.787,2.225
		c-0.008,0.256-0.119,0.631-0.334,1.111c-0.164,0.369-0.377,0.775-0.584,1.17l-0.014,0.027c-0.238,0.449-0.478,0.912-0.689,1.383
		c-0.42,0.945-0.918,2.367-0.373,3.791c0.697,1.82,2.586,2.52,4.25,3.139c0.867,0.32,1.85,0.684,2.234,1.092
		c0.348,0.367,0.654,1.371,0.902,2.18c0.088,0.285,0.18,0.582,0.277,0.875l-0.535,14.957c-0.016,0.434,0.225,0.836,0.613,1.027
		c0.154,0.074,0.32,0.111,0.484,0.111c0.252,0,0.502-0.088,0.703-0.254l9.131-7.598l9.859,7.621c0.197,0.152,0.434,0.23,0.672,0.23
		c0.178,0,0.355-0.043,0.518-0.131c0.383-0.203,0.609-0.611,0.578-1.043l-1.055-15.307c0.137-0.369,0.275-0.738,0.422-1.064
		c0.213-0.478,0.416-0.811,0.603-0.988c0.369-0.35,1.373-0.656,2.18-0.902c1.734-0.531,3.697-1.133,4.52-2.98
		c0.824-1.846-0.041-3.707-0.805-5.35c-0.357-0.77-0.801-1.721-0.789-2.229c0.008-0.256,0.119-0.629,0.334-1.111
		C366.816,249.958,367.041,249.532,367.24,249.153z"/>
	<g>
		<g>
			<g>
				<g>
					<path style="fill:#B167AA;" d="M338.326,279.116c-0.082,0-0.166-0.018-0.242-0.055c-0.195-0.096-0.314-0.297-0.307-0.514
						l0.809-22.621c0.012-0.295,0.254-0.529,0.549-0.529h17.996c0.289,0,0.529,0.223,0.549,0.512l1.561,22.621
						c0.014,0.215-0.1,0.42-0.289,0.523c-0.084,0.043-0.172,0.063-0.26,0.063c-0.119,0-0.238-0.037-0.336-0.113l-10.209-7.891
						l-9.469,7.877C338.576,279.073,338.451,279.116,338.326,279.116z"/>
				</g>
			</g>
			<g>
				<g>
					<path style="fill:#5C1F5B;" d="M357.131,255.946l1.561,22.623l-10.559-8.162l-9.807,8.162l0.809-22.623H357.131
						 M357.131,254.849h-17.996c-0.59,0-1.076,0.467-1.098,1.059l-0.809,22.621c-0.016,0.434,0.225,0.836,0.613,1.025
						c0.154,0.076,0.32,0.113,0.484,0.113c0.252,0,0.502-0.086,0.703-0.254l9.129-7.598l9.859,7.621
						c0.197,0.152,0.436,0.23,0.674,0.23c0.176,0,0.355-0.045,0.517-0.131c0.383-0.203,0.608-0.613,0.578-1.045l-1.561-22.619
						C358.188,255.296,357.709,254.849,357.131,254.849L357.131,254.849z"/>
				</g>
			</g>
		</g>
		<g>
			<g>
				<g>
					<g>
						<g>
							<path style="fill:#D8D2E9;" d="M354.191,267.31c-1.223,0-2.424-0.631-3.586-1.24c-0.914-0.478-1.859-0.977-2.549-0.994
								c0,0,0,0-0.002,0c-0.674,0-1.627,0.445-2.469,0.838c-1.148,0.533-2.336,1.086-3.527,1.086c-0.486,0-0.947-0.096-1.369-0.283
								c-1.621-0.721-2.184-2.559-2.678-4.18c-0.293-0.953-0.592-1.936-1.029-2.396c-0.475-0.5-1.475-0.873-2.441-1.232
								c-1.559-0.576-3.32-1.228-3.93-2.818c-0.467-1.219-0.051-2.441,0.363-3.371c0.203-0.455,0.439-0.906,0.67-1.346
								c0.227-0.434,0.445-0.848,0.615-1.234c0.252-0.563,0.373-0.982,0.383-1.32c0.016-0.635-0.438-1.611-0.838-2.471
								c-0.717-1.535-1.525-3.275-0.805-4.898c0.721-1.617,2.557-2.18,4.176-2.674c0.959-0.295,1.941-0.596,2.4-1.031
								c0.242-0.229,0.48-0.609,0.728-1.166c0.178-0.398,0.344-0.846,0.504-1.277c0.164-0.439,0.348-0.941,0.553-1.402
								c0.416-0.93,1.047-2.057,2.266-2.525c0.355-0.135,0.738-0.205,1.137-0.205c1.223,0,2.424,0.631,3.586,1.24
								c0.918,0.482,1.861,0.979,2.549,0.994l0,0c0.674,0,1.629-0.445,2.471-0.836c1.148-0.535,2.334-1.088,3.527-1.088
								c0.486,0,0.947,0.096,1.371,0.285c1.619,0.721,2.182,2.557,2.676,4.178c0.293,0.955,0.594,1.938,1.029,2.396
								c0.475,0.502,1.475,0.873,2.443,1.232c1.555,0.576,3.318,1.23,3.928,2.818c0.467,1.219,0.051,2.443-0.363,3.371
								c-0.205,0.463-0.453,0.936-0.672,1.352c-0.203,0.387-0.434,0.824-0.613,1.229c-0.252,0.563-0.371,0.984-0.381,1.32
								c-0.018,0.635,0.418,1.568,0.838,2.471c0.715,1.539,1.523,3.281,0.803,4.899c-0.721,1.619-2.557,2.18-4.176,2.676
								c-0.91,0.277-1.938,0.592-2.4,1.029c-0.246,0.234-0.479,0.604-0.729,1.166c-0.176,0.396-0.342,0.844-0.502,1.277
								c-0.18,0.484-0.355,0.955-0.555,1.402c-0.414,0.93-1.047,2.059-2.266,2.525C354.973,267.241,354.59,267.31,354.191,267.31z"
								/>
						</g>
					</g>
					<g>
						<g>
							<path style="fill:#5C1F5B;" d="M342.764,231.718c1.086,0,2.223,0.596,3.33,1.178c0.971,0.51,1.973,1.035,2.789,1.057
								c0.017,0,0.033,0,0.051,0c0.758,0,1.729-0.451,2.668-0.891c1.098-0.51,2.223-1.031,3.295-1.033
								c0.391,0,0.773,0.07,1.147,0.236c1.391,0.619,1.891,2.254,2.375,3.836c0.311,1.012,0.631,2.061,1.156,2.615
								c0.563,0.594,1.623,0.986,2.65,1.367c1.517,0.565,3.086,1.145,3.605,2.502c0.395,1.031,0.02,2.119-0.352,2.953
								c-0.197,0.439-0.43,0.887-0.658,1.318c-0.219,0.416-0.445,0.85-0.627,1.258c-0.281,0.631-0.418,1.117-0.428,1.531
								c-0.02,0.764,0.441,1.756,0.889,2.717c0.697,1.502,1.42,3.051,0.799,4.443c-0.619,1.391-2.256,1.891-3.838,2.373
								c-1.012,0.309-2.059,0.631-2.615,1.158c-0.299,0.283-0.57,0.707-0.852,1.338c-0.182,0.412-0.352,0.867-0.516,1.311
								c-0.17,0.459-0.346,0.932-0.541,1.371c-0.371,0.832-0.932,1.84-1.961,2.234c-0.307,0.117-0.621,0.17-0.939,0.17
								c-1.086,0-2.223-0.598-3.33-1.178c-0.971-0.51-1.973-1.035-2.791-1.057c-0.016,0-0.031,0-0.049,0
								c-0.758,0-1.728,0.451-2.668,0.889c-1.1,0.512-2.225,1.035-3.295,1.035c-0.391,0-0.773-0.07-1.146-0.236
								c-1.391-0.619-1.891-2.256-2.375-3.836c-0.311-1.014-0.629-2.063-1.156-2.615c-0.56-0.596-1.623-0.988-2.65-1.369
								c-1.518-0.563-3.086-1.144-3.605-2.502c-0.395-1.029-0.02-2.117,0.352-2.951c0.195-0.441,0.432-0.889,0.658-1.318
								c0.219-0.418,0.445-0.85,0.627-1.26c0.281-0.631,0.418-1.119,0.43-1.529c0.017-0.766-0.443-1.758-0.891-2.719
								c-0.697-1.498-1.418-3.051-0.799-4.441c0.619-1.391,2.256-1.891,3.838-2.375c1.014-0.311,2.06-0.631,2.615-1.156
								c0.299-0.283,0.57-0.711,0.852-1.34c0.182-0.41,0.352-0.867,0.516-1.311c0.17-0.457,0.346-0.932,0.541-1.371
								c0.371-0.834,0.932-1.84,1.961-2.234C342.133,231.769,342.445,231.718,342.764,231.718 M342.764,230.618
								c-0.465,0-0.914,0.08-1.334,0.242c-1.422,0.547-2.146,1.867-2.57,2.813c-0.211,0.477-0.4,0.988-0.568,1.438
								c-0.156,0.424-0.318,0.861-0.488,1.244c-0.215,0.48-0.418,0.814-0.602,0.988c-0.369,0.348-1.371,0.654-2.176,0.9
								c-1.742,0.535-3.703,1.135-4.527,2.982c-0.824,1.85,0.043,3.711,0.807,5.354c0.358,0.766,0.801,1.717,0.787,2.225
								c-0.006,0.256-0.119,0.629-0.334,1.111c-0.164,0.369-0.377,0.775-0.582,1.17l-0.016,0.027
								c-0.236,0.451-0.478,0.91-0.688,1.383c-0.422,0.945-0.92,2.367-0.373,3.791c0.697,1.82,2.584,2.522,4.25,3.137
								c0.867,0.322,1.848,0.688,2.234,1.094c0.348,0.367,0.654,1.371,0.9,2.178c0.531,1.734,1.131,3.699,2.98,4.523
								c0.492,0.221,1.029,0.332,1.594,0.332c1.313,0,2.557-0.58,3.758-1.139c0.754-0.352,1.689-0.787,2.205-0.787
								c0.582,0.016,1.51,0.502,2.33,0.932c1.219,0.641,2.482,1.305,3.84,1.305c0.465,0,0.916-0.082,1.334-0.244
								c1.422-0.545,2.148-1.865,2.568-2.813c0.207-0.463,0.387-0.945,0.559-1.408l0.01-0.025c0.158-0.428,0.32-0.867,0.49-1.246
								c0.215-0.481,0.418-0.815,0.603-0.992c0.369-0.35,1.373-0.654,2.182-0.9c1.734-0.533,3.697-1.131,4.52-2.98
								c0.822-1.846-0.041-3.707-0.805-5.35c-0.359-0.768-0.803-1.721-0.789-2.229c0.008-0.254,0.119-0.629,0.334-1.111
								c0.172-0.387,0.398-0.816,0.598-1.193c0.223-0.426,0.475-0.906,0.688-1.383c0.422-0.947,0.92-2.369,0.375-3.793
								c-0.699-1.822-2.586-2.521-4.25-3.139c-0.867-0.322-1.85-0.686-2.234-1.094c-0.348-0.365-0.654-1.369-0.902-2.174
								c-0.531-1.738-1.131-3.703-2.98-4.525c-0.492-0.221-1.029-0.332-1.594-0.332c-1.314,0-2.557,0.578-3.758,1.139
								c-0.754,0.35-1.689,0.785-2.205,0.785c-0.582-0.014-1.506-0.5-2.322-0.928C345.441,231.31,344.121,230.618,342.764,230.618
								L342.764,230.618z"/>
						</g>
					</g>
				</g>
			</g>
			<g>
				<g>
					<g>
						<path style="fill:#B9B0D7;" d="M363.766,249.645c0.01-0.414,0.147-0.9,0.428-1.531c0.182-0.408,0.408-0.842,0.627-1.258
							c0.228-0.432,0.461-0.879,0.658-1.318c0.371-0.834,0.746-1.922,0.352-2.953c-0.461-1.201-1.742-1.795-3.082-2.305
							c0.455,0.336,0.82,0.746,1.022,1.273c0.396,1.031,0.02,2.121-0.352,2.953c-0.195,0.439-0.43,0.887-0.656,1.318
							c-0.221,0.418-0.447,0.85-0.629,1.26c-0.281,0.631-0.418,1.117-0.428,1.531c-0.021,0.764,0.441,1.756,0.889,2.717
							c0.697,1.5,1.42,3.051,0.799,4.442c-0.621,1.391-2.256,1.891-3.838,2.375c-1.012,0.309-2.059,0.631-2.613,1.156
							c-0.301,0.283-0.572,0.709-0.854,1.34c-0.182,0.41-0.352,0.867-0.516,1.311c-0.17,0.457-0.346,0.932-0.541,1.369
							c-0.371,0.834-0.93,1.842-1.961,2.236c-0.918,0.351-1.897,0.103-2.875-0.324c0.221,0.111,0.443,0.229,0.666,0.346
							c1.432,0.752,2.914,1.529,4.27,1.008c1.029-0.395,1.59-1.402,1.961-2.234c0.195-0.44,0.371-0.912,0.541-1.371
							c0.164-0.443,0.334-0.898,0.516-1.311c0.281-0.631,0.553-1.055,0.852-1.338c0.557-0.527,1.603-0.85,2.615-1.158
							c1.582-0.483,3.219-0.983,3.838-2.373c0.621-1.393-0.102-2.941-0.799-4.443C364.207,251.401,363.746,250.409,363.766,249.645z
							"/>
					</g>
				</g>
				<g>
					<g>
						<path style="fill:#B9B0D7;" d="M348.801,264.552c-0.971-0.51-1.973-1.033-2.791-1.057c-0.764-0.02-1.756,0.441-2.717,0.889
							c-1.135,0.527-2.297,1.068-3.398,1.033c0.279,0.334,0.605,0.615,1.018,0.797c1.391,0.619,2.941-0.102,4.441-0.799
							c0.961-0.447,1.953-0.91,2.717-0.889c0.434,0.01,0.92,0.166,1.426,0.383C349.264,264.794,349.031,264.673,348.801,264.552z"/>
					</g>
				</g>
			</g>
			<g>
				<g>
					<g>
						<g>
							<path style="fill:#AB89BF;" d="M348.477,262.45c-7.285,0-13.211-5.926-13.211-13.211c0-7.287,5.926-13.213,13.211-13.213
								c7.287,0,13.213,5.926,13.213,13.213C361.689,256.525,355.764,262.45,348.477,262.45z"/>
						</g>
					</g>
					<g>
						<g>
							<g>
								<path style="fill:#5C1F5B;" d="M348.477,236.575c6.994,0,12.664,5.67,12.664,12.664c0,6.992-5.67,12.664-12.664,12.664
									c-6.992,0-12.662-5.672-12.662-12.664C335.814,242.245,341.484,236.575,348.477,236.575 M348.477,235.478
									c-7.588,0-13.762,6.174-13.762,13.762s6.174,13.762,13.762,13.762c7.59,0,13.764-6.174,13.764-13.762
									S356.066,235.478,348.477,235.478L348.477,235.478z"/>
							</g>
						</g>
					</g>
				</g>
				<g>
					<g>
						<path style="fill:#FFFFFF;" d="M338.564,246.206c-0.06,0-0.123-0.012-0.185-0.035c-0.285-0.102-0.434-0.416-0.33-0.703
							c1.582-4.375,5.772-7.316,10.428-7.316c0.305,0,0.551,0.246,0.551,0.551c0,0.303-0.246,0.549-0.551,0.549
							c-4.193,0-7.969,2.648-9.395,6.59C339.002,246.066,338.791,246.206,338.564,246.206z"/>
					</g>
				</g>
				<g>
					<g>
						<path style="fill:#A67FB9;" d="M352.209,237.136c2.063,2.197,3.328,5.152,3.328,8.406c0,6.789-5.504,12.293-12.295,12.293
							c-1.748,0-3.41-0.367-4.916-1.027c2.309,3.094,5.996,5.096,10.15,5.096c6.994,0,12.664-5.672,12.664-12.664
							C361.141,243.544,357.381,238.728,352.209,237.136z"/>
					</g>
				</g>
				<g>
					<g>
						<path style="fill:#9C77B5;" d="M353.703,237.706c2.742,2.322,4.484,5.789,4.484,9.662c0,6.994-5.67,12.662-12.664,12.662
							c-1.863,0-3.633-0.406-5.227-1.129c2.207,1.871,5.061,3.002,8.18,3.002c6.994,0,12.664-5.672,12.664-12.664
							C361.141,244.11,358.09,239.696,353.703,237.706z"/>
					</g>
				</g>
			</g>
		</g>
		<g>
			<g>
				<polygon style="fill:#934D93;" points="348.133,267.761 338.451,275.075 338.326,278.569 348.133,270.407 358.691,278.569 
					358.443,274.989 				"/>
			</g>
		</g>
	</g>
</g>
<g>
	<path style="fill:#5C1F5B;" d="M372.248,161.128c0-9.512-9.813-17.25-21.875-17.25s-21.875,7.738-21.875,17.25
		c0,9.514,9.813,17.254,21.875,17.254c1.436,0,2.877-0.113,4.295-0.338l6.353,6.195c0.229,0.221,0.529,0.34,0.838,0.34
		c0.121,0,0.242-0.018,0.361-0.055c0.422-0.135,0.736-0.488,0.818-0.924l1.793-9.52C369.553,170.804,372.248,166.11,372.248,161.128
		z"/>
	<g>
		<g>
			<g>
				<g>
					<path style="fill:#CCA2CB;" d="M360.279,182.03c-0.152,0-0.305-0.059-0.418-0.172l-6.57-6.404
						c-1.48,0.252-2.992,0.377-4.498,0.377c-11.73,0-21.275-7.469-21.275-16.65c0-9.184,9.545-16.652,21.275-16.652
						c11.732,0,21.275,7.469,21.275,16.652c0,4.848-2.678,9.428-7.359,12.598l-1.84,9.764c-0.041,0.215-0.197,0.393-0.408,0.459
						C360.402,182.02,360.34,182.03,360.279,182.03z"/>
				</g>
			</g>
			<g>
				<g>
					<path style="fill:#5C1F5B;" d="M348.793,143.128c11.42,0,20.676,7.188,20.676,16.053c0,4.904-2.836,9.293-7.303,12.236
						l-1.887,10.012l-6.789-6.617c-1.51,0.273-3.08,0.42-4.697,0.42c-11.418,0-20.676-7.188-20.676-16.051
						C328.117,150.316,337.375,143.128,348.793,143.128 M348.793,141.929c-12.063,0-21.875,7.738-21.875,17.252
						c0,9.512,9.813,17.252,21.875,17.252c1.438,0,2.879-0.113,4.297-0.336l6.353,6.193c0.227,0.221,0.529,0.34,0.836,0.34
						c0.123,0,0.244-0.018,0.363-0.055c0.422-0.135,0.736-0.488,0.816-0.924l1.793-9.52c4.721-3.277,7.418-7.973,7.418-12.951
						C370.67,149.667,360.855,141.929,348.793,141.929L348.793,141.929z"/>
				</g>
			</g>
		</g>
		<g>
			<g>
				<path style="fill:#C18DBF;" d="M355.072,170.634c-0.189,0.877-0.705,1.711-1.652,2.328c-1.693,1.107-3.699,1.797-5.82,2.24
					c0.395,0.018,0.793,0.029,1.193,0.029c1.617,0,3.188-0.146,4.697-0.42l6.789,6.617l1.887-10.012
					c0.379-0.25,0.742-0.514,1.098-0.783H355.072z"/>
			</g>
		</g>
		<g>
			<g>
				<path style="fill:#FFFFFF;" d="M332.217,155.237c-0.084,0-0.17-0.018-0.252-0.057c-0.301-0.139-0.432-0.496-0.291-0.797
					c2.512-5.395,9.551-9.162,17.119-9.162c0.332,0,0.602,0.27,0.602,0.6c0,0.332-0.27,0.602-0.602,0.602
					c-7.117,0-13.709,3.48-16.031,8.467C332.66,155.108,332.443,155.237,332.217,155.237z"/>
			</g>
		</g>
		<g>
			<g>
				<path style="fill:#C595C4;" d="M354.887,143.837c3.365,2.785,5.434,6.533,5.434,10.656c0,8.605-8.988,15.582-20.074,15.582
					c-2.855,0-5.568-0.465-8.027-1.299c3.768,3.918,9.791,6.455,16.574,6.455c11.42,0,20.676-7.188,20.676-16.051
					C369.469,151.962,363.33,145.857,354.887,143.837z"/>
			</g>
		</g>
		<g>
			<g>
				<path style="fill:#C18DBF;" d="M357.326,144.56c4.477,2.945,7.32,7.338,7.32,12.248c0,8.867-9.256,16.053-20.676,16.053
					c-3.045,0-5.932-0.516-8.535-1.432c3.604,2.371,8.264,3.803,13.357,3.803c11.42,0,20.676-7.188,20.676-16.051
					C369.469,152.679,364.488,147.083,357.326,144.56z"/>
			</g>
		</g>
	</g>
</g>
<g>
	<path style="fill:#5C1F5B;" d="M354.943,77.841c0.002-0.002,0.002-0.002,0.002-0.004c0.004-0.002,0.004-0.008,0.008-0.01
		c0.561-0.861,1.545-1.25,2.686-1.699c0.656-0.262,1.336-0.529,1.992-0.912c3.576-2.092,5.555-6.721,5.754-13.412
		c0.805-0.205,1.404-0.93,1.404-1.797v-2.004c0-1.025-0.834-1.859-1.859-1.859h-27.684c-1.027,0-1.859,0.834-1.859,1.859v2.004
		c0,0.867,0.598,1.592,1.404,1.797c0.199,6.693,2.176,11.32,5.756,13.412c0.654,0.383,1.332,0.65,1.99,0.912
		c1.139,0.449,2.125,0.838,2.685,1.699c0.002,0.002,0.004,0.006,0.004,0.006c0.002,0.004,0.004,0.006,0.006,0.01
		c0,0-0.002,0,0.002,0.002c0.039,0.07,0.184,0.363,0.25,0.895c-0.066,0.529-0.211,0.822-0.25,0.893
		c-0.004,0.004-0.002,0.002-0.002,0.004c-0.002,0.002-0.004,0.006-0.006,0.008c0,0.002-0.002,0.004-0.004,0.008
		c-0.563,0.861-1.547,1.25-2.688,1.699c-0.656,0.26-1.336,0.527-1.988,0.912c-3.58,2.092-5.557,6.719-5.756,13.412
		c-0.807,0.203-1.404,0.928-1.404,1.797v2.002c0,1.025,0.832,1.861,1.859,1.861h27.684c1.025,0,1.859-0.836,1.859-1.861v-2.002
		c0-0.867-0.6-1.592-1.404-1.797c-0.199-6.693-2.176-11.32-5.756-13.412c-0.654-0.385-1.332-0.652-1.988-0.912
		c-1.141-0.449-2.125-0.838-2.688-1.699c-0.004-0.006-0.006-0.008-0.008-0.01c0-0.004,0-0.004-0.002-0.006
		c-0.002-0.004,0,0-0.002-0.004c-0.039-0.07-0.186-0.363-0.252-0.893c0.066-0.529,0.213-0.822,0.252-0.893
		C354.943,77.843,354.941,77.845,354.943,77.841z"/>
	<g>
		<g>
			<g>
				<g>
					<path style="fill:#D8D2E9;" d="M336.391,95.46c-0.33,0-0.6-0.268-0.6-0.598c0-7.084,1.895-11.938,5.479-14.033
						c0.615-0.357,1.271-0.617,1.906-0.869c1.184-0.467,2.303-0.91,2.969-1.93c0.01-0.014,0.277-0.428,0.365-1.24
						c-0.088-0.814-0.355-1.227-0.357-1.232c-0.672-1.029-1.791-1.471-2.975-1.939c-0.637-0.25-1.293-0.51-1.908-0.869
						c-3.584-2.098-5.479-6.949-5.479-14.031c0-0.332,0.27-0.6,0.6-0.6h26.234c0.332,0,0.602,0.268,0.602,0.6
						c0,7.082-1.895,11.934-5.479,14.031c-0.615,0.359-1.273,0.619-1.908,0.869c-1.186,0.469-2.303,0.91-2.969,1.93
						c-0.01,0.016-0.275,0.428-0.365,1.242c0.09,0.813,0.355,1.225,0.359,1.23c0.672,1.029,1.791,1.473,2.977,1.939
						c0.635,0.252,1.291,0.512,1.906,0.869c3.584,2.096,5.479,6.949,5.479,14.033c0,0.33-0.27,0.598-0.602,0.598H336.391z"/>
				</g>
			</g>
			<g>
				<g>
					<path style="fill:#5C1F5B;" d="M362.625,58.718h0.004 M362.625,58.718c0,4.572-0.791,10.945-5.18,13.512
						c-1.727,1.012-3.922,1.223-5.076,2.992c0,0-0.365,0.52-0.465,1.568c0.1,1.047,0.465,1.566,0.465,1.566
						c1.154,1.771,3.35,1.982,5.076,2.992c4.389,2.568,5.18,8.939,5.18,13.514h-13.066h-0.102h-13.066
						c0-4.574,0.791-10.945,5.182-13.514c1.727-1.01,3.92-1.221,5.076-2.992c0,0,0.363-0.52,0.465-1.566
						c-0.102-1.049-0.465-1.568-0.465-1.568c-1.156-1.77-3.35-1.98-5.076-2.992c-4.391-2.566-5.182-8.939-5.182-13.512h13.066h0.102
						H362.625 M362.629,57.517h-0.004h-13.066h-0.102h-13.066c-0.662,0-1.199,0.537-1.199,1.201c0,7.309,1.996,12.338,5.775,14.549
						c0.654,0.383,1.334,0.65,1.99,0.912c1.141,0.449,2.125,0.838,2.685,1.699c0.004,0.002,0.004,0.004,0.006,0.006
						c0,0.002,0.004,0.004,0.004,0.008c0.002,0.002,0,0,0.002,0.004c0.039,0.07,0.186,0.363,0.252,0.895
						c-0.066,0.529-0.213,0.822-0.252,0.893c-0.002,0.002,0,0.002-0.002,0.004c0,0.004-0.004,0.006-0.004,0.006
						c-0.002,0.004-0.002,0.006-0.006,0.01c-0.563,0.861-1.547,1.25-2.688,1.699c-0.656,0.26-1.334,0.529-1.988,0.91
						c-3.779,2.211-5.775,7.242-5.775,14.551c0,0.662,0.537,1.199,1.199,1.199h13.066h0.102h13.066c0.664,0,1.201-0.537,1.201-1.199
						c0-7.308-1.996-12.34-5.775-14.551c-0.654-0.381-1.334-0.65-1.988-0.91c-1.141-0.449-2.127-0.838-2.69-1.699
						c-0.004-0.006-0.006-0.01-0.006-0.012c-0.002,0-0.002-0.002-0.002-0.004c-0.002-0.004,0-0.002-0.004-0.004
						c-0.039-0.072-0.186-0.363-0.252-0.893c0.066-0.531,0.213-0.822,0.252-0.893c0.004-0.004,0.002-0.002,0.002-0.006
						c0.002,0,0.004-0.004,0.004-0.004c0.002-0.004,0.004-0.006,0.006-0.01c0.561-0.861,1.547-1.25,2.688-1.699
						c0.656-0.262,1.334-0.529,1.99-0.912c3.768-2.205,5.764-7.213,5.775-14.488c0.002-0.02,0.002-0.041,0.002-0.061
						C363.828,58.054,363.291,57.517,362.629,57.517L362.629,57.517z"/>
				</g>
			</g>
		</g>
		<g>
			<g>
				<path style="fill:#B9B0D7;" d="M357.445,81.349c-1.727-1.01-3.922-1.221-5.076-2.992c0,0-0.365-0.52-0.465-1.566
					c0.1-1.049,0.465-1.568,0.465-1.568c1.154-1.77,3.35-1.98,5.076-2.992c4.389-2.566,5.18-8.939,5.18-13.512h-2.973
					c-0.188,5.051-1.793,9.215-6.016,12.252c-2.059,1.48-3.244,3.588-2.918,6.188c0.285,2.281,1.77,3.506,3.018,5.262
					c2.41,3.379,1.684,7.824-2.486,9.32c-4.588,1.641-9.963,0.883-14.781,0.773c-0.053,0.814-0.078,1.605-0.078,2.35h26.234
					C362.625,90.288,361.834,83.917,357.445,81.349z"/>
			</g>
		</g>
		<g>
			<g>
				<g>
					<path style="fill:#CCA2CB;" d="M340.352,92.22c-0.332,0-0.6-0.268-0.6-0.598c0-3.098,1.162-7.072,3.758-8.973
						c0.103-0.076,0.228-0.115,0.355-0.115h11.287c0.129,0,0.252,0.039,0.355,0.115c2.596,1.902,3.758,5.877,3.758,8.973
						c0,0.33-0.268,0.598-0.6,0.598H340.352z"/>
				</g>
			</g>
			<g>
				<g>
					<path style="fill:#5C1F5B;" d="M355.152,83.134c2.514,1.84,3.514,5.787,3.514,8.488h-9.156h-9.158c0-2.701,1-6.648,3.514-8.488
						h5.645H355.152 M355.152,81.933h-5.643h-5.645c-0.256,0-0.504,0.084-0.709,0.232c-2.768,2.025-4.006,6.209-4.006,9.457
						c0,0.662,0.539,1.199,1.201,1.199h9.158h9.156c0.664,0,1.201-0.537,1.201-1.199c0-3.248-1.238-7.43-4.006-9.455
						C355.656,82.017,355.408,81.933,355.152,81.933L355.152,81.933z"/>
				</g>
			</g>
		</g>
		<g>
			<g>
				<path style="fill:#C18DBF;" d="M355.152,83.134h-1.508c0.697,2.49,1.453,5.65-0.818,6.981c-1.846,1.084-4.309,0.775-6.34,0.775
					h-6.109c-0.016,0.25-0.025,0.496-0.025,0.732h18.314C358.666,88.921,357.666,84.974,355.152,83.134z"/>
			</g>
		</g>
		<g>
			<g>
				<g>
					<path style="fill:#CCA2CB;" d="M349.172,76.142c-0.234,0-0.477-0.006-0.758-0.021c-0.18-0.01-0.346-0.1-0.451-0.244
						c-0.08-0.111-0.119-0.242-0.115-0.375c-0.021-0.121-0.117-0.436-0.168-0.611l-0.078-0.264c-0.305-1.08-1.568-1.859-2.098-2.145
						c-0.367-0.199-0.762-0.354-1.18-0.518c-0.492-0.193-1-0.395-1.486-0.678c-1.764-1.033-3.023-2.861-3.742-5.432
						c-0.051-0.18-0.014-0.375,0.1-0.523c0.113-0.15,0.291-0.238,0.478-0.238h19.67c0.188,0,0.365,0.088,0.479,0.238
						c0.113,0.148,0.15,0.344,0.1,0.523c-0.719,2.57-1.979,4.398-3.744,5.432c-0.484,0.283-0.994,0.482-1.486,0.674
						c-0.424,0.166-0.824,0.322-1.195,0.523c-1.107,0.605-1.779,1.205-2.111,1.893c-0.068,0.145-0.348,0.867-0.422,1.127
						c0,0.008,0,0.016,0,0.023c0,0.332-0.267,0.602-0.6,0.602c-0.236,0-0.445,0.002-0.642,0.006
						C349.533,76.138,349.355,76.142,349.172,76.142z"/>
				</g>
			</g>
			<g>
				<g>
					<path style="fill:#5C1F5B;" d="M359.344,65.694h0.002 M359.344,65.694c-0.586,2.094-1.633,4-3.469,5.074
						c-0.844,0.492-1.811,0.723-2.666,1.189c-0.926,0.504-1.895,1.184-2.365,2.156c-0.06,0.125-0.574,1.412-0.48,1.412
						c-0.459,0-0.813,0.014-1.191,0.014c-0.223,0-0.455-0.004-0.725-0.02c0.027-0.107-0.178-0.736-0.27-1.057
						c-0.315-1.113-1.414-1.986-2.389-2.512c-0.854-0.459-1.809-0.693-2.647-1.184c-1.836-1.074-2.883-2.98-3.469-5.074H359.344
						 M359.346,64.493h-0.002h-19.67c-0.377,0-0.73,0.176-0.957,0.475c-0.227,0.301-0.301,0.688-0.199,1.049
						c0.762,2.727,2.113,4.672,4.018,5.787c0.527,0.307,1.057,0.516,1.57,0.717c0.398,0.158,0.777,0.307,1.113,0.486
						c0.963,0.52,1.637,1.186,1.805,1.783c0.023,0.076,0.051,0.172,0.08,0.271c0.043,0.141,0.115,0.385,0.145,0.506
						c0.01,0.236,0.088,0.467,0.23,0.66c0.211,0.293,0.543,0.471,0.902,0.49c0.264,0.016,0.516,0.024,0.791,0.024
						c0.188,0,0.369-0.002,0.559-0.008c0.195-0.002,0.4-0.008,0.633-0.008c0.639,0,1.162-0.498,1.197-1.129
						c0.086-0.266,0.307-0.83,0.371-0.975c0.264-0.545,0.873-1.078,1.852-1.611c0.338-0.184,0.721-0.334,1.125-0.49
						c0.514-0.201,1.047-0.41,1.572-0.717c1.891-1.105,3.236-3.031,4.002-5.725c0.041-0.121,0.063-0.252,0.063-0.385
						C360.545,65.03,360.01,64.493,359.346,64.493L359.346,64.493z"/>
				</g>
			</g>
		</g>
		<g>
			<g>
				<path style="fill:#C18DBF;" d="M356.74,65.694c-0.48,1.453-1.264,2.777-2.443,3.861c-1.777,1.637-5.82,3.043-5.418,5.98
					c0.502,0.01,0.912-0.01,1.484-0.01c-0.094,0,0.42-1.287,0.48-1.412c0.471-0.973,1.44-1.652,2.365-2.156
					c0.855-0.467,1.822-0.697,2.666-1.189c1.836-1.074,2.883-2.98,3.469-5.074H356.74z"/>
			</g>
		</g>
		<g>
			<g>
				<g>
					<path style="fill:#979BCD;" d="M335.666,59.317c-0.695,0-1.26-0.564-1.26-1.26v-2.004c0-0.693,0.565-1.26,1.26-1.26h27.686
						c0.693,0,1.258,0.566,1.258,1.26v2.004c0,0.695-0.564,1.26-1.258,1.26H335.666z"/>
				</g>
			</g>
			<g>
				<g>
					<path style="fill:#5C1F5B;" d="M363.352,55.396c0.363,0,0.658,0.293,0.658,0.658v2.004c0,0.363-0.295,0.66-0.658,0.66h-27.686
						c-0.363,0-0.66-0.297-0.66-0.66v-2.004c0-0.365,0.297-0.658,0.66-0.658H363.352 M363.352,54.194h-27.686
						c-1.025,0-1.859,0.834-1.859,1.859v2.004c0,1.025,0.834,1.859,1.859,1.859h27.686c1.023,0,1.857-0.834,1.857-1.859v-2.004
						C365.209,55.028,364.375,54.194,363.352,54.194L363.352,54.194z"/>
				</g>
			</g>
		</g>
		<g>
			<g>
				<path style="fill:#838DC6;" d="M363.352,55.396h-1.43v1.51c0,0.363-0.295,0.658-0.658,0.658h-26.258v0.494
					c0,0.363,0.297,0.66,0.66,0.66h27.686c0.363,0,0.658-0.297,0.658-0.66v-2.004C364.01,55.688,363.715,55.396,363.352,55.396z"/>
			</g>
		</g>
		<g>
			<g>
				<g>
					<path style="fill:#979BCD;" d="M335.666,98.786c-0.695,0-1.26-0.566-1.26-1.262v-2.002c0-0.695,0.565-1.262,1.26-1.262h27.686
						c0.693,0,1.258,0.566,1.258,1.262v2.002c0,0.695-0.564,1.262-1.258,1.262H335.666z"/>
				</g>
			</g>
			<g>
				<g>
					<path style="fill:#5C1F5B;" d="M363.352,94.862c0.363,0,0.658,0.295,0.658,0.66v2.002c0,0.365-0.295,0.66-0.658,0.66h-27.686
						c-0.363,0-0.66-0.295-0.66-0.66v-2.002c0-0.365,0.297-0.66,0.66-0.66H363.352 M363.352,93.661h-27.686
						c-1.025,0-1.859,0.834-1.859,1.861v2.002c0,1.025,0.834,1.861,1.859,1.861h27.686c1.023,0,1.857-0.836,1.857-1.861v-2.002
						C365.209,94.495,364.375,93.661,363.352,93.661L363.352,93.661z"/>
				</g>
			</g>
		</g>
		<g>
			<g>
				<path style="fill:#838DC6;" d="M363.352,94.862h-1.318v1.002c0,0.363-0.295,0.658-0.66,0.658h-26.367v1.002
					c0,0.365,0.297,0.66,0.66,0.66h27.686c0.363,0,0.658-0.295,0.658-0.66v-2.002C364.01,95.157,363.715,94.862,363.352,94.862z"/>
			</g>
		</g>
	</g>
</g>
<g>
	<path style="fill:#5C1F5B;" d="M258.396,128.704h-25.635l-29.457-45.828c-1.342-2.078-4.324-2.732-6.42-1.389l-5.195,3.34
		c-1.039,0.67-1.76,1.707-2.022,2.918c-0.264,1.213-0.037,2.457,0.629,3.496l24.084,37.463h-91.305l24.08-37.461
		c0.672-1.041,0.893-2.285,0.631-3.498c-0.264-1.211-0.98-2.248-2.023-2.918l-5.195-3.34c-2.09-1.344-5.072-0.689-6.42,1.391
		l-29.457,45.826H79.057c-4.91,0-8.91,3.998-8.91,8.914v12.984c0,4.914,4,8.914,8.91,8.914h4.303l10.686,88.121
		c0.635,5.23,4.68,9.484,9.014,9.484h131.34c4.336,0,8.375-4.254,9.01-9.484l10.691-88.121h4.297c4.916,0,8.914-4,8.914-8.914
		v-12.984C267.31,132.702,263.313,128.704,258.396,128.704z"/>
	<g>
		<g>
			<g>
				<g>
					<g>
						<g>
							<path style="fill:#D8D2E9;" d="M96.68,247.108c-3.215,0-6.207-3.145-6.66-7.012L77.465,133.663
								c-0.453-3.867,2.313-7.012,6.166-7.012h157.982c3.85,0,6.615,3.145,6.156,7.012l-12.555,106.434
								c-0.453,3.867-3.441,7.012-6.656,7.012H96.68z"/>
						</g>
					</g>
					<g>
						<g>
							<g>
								<path style="fill:#5C1F5B;" d="M241.346,129.124c2.484,0,4.27,2.033,3.984,4.539l-12.191,106.434
									c-0.285,2.508-2.221,4.541-4.313,4.541H96.412c-2.094,0-4.025-2.033-4.311-4.541L79.904,133.663
									c-0.285-2.506,1.5-4.539,3.994-4.539H241.346 M241.881,124.179H83.363c-5.232,0-8.973,4.256-8.338,9.484l12.912,106.434
									c0.635,5.23,4.68,9.482,9.01,9.482h131.344c4.33,0,8.375-4.252,9.01-9.482l12.908-106.434
									C250.844,128.435,247.107,124.179,241.881,124.179L241.881,124.179z"/>
							</g>
						</g>
					</g>
				</g>
				<g>
					<g>
						<g>
							<path style="fill:#CCC6E3;" d="M241.346,129.124h-22.879l-6.447,83.896c-0.195,2.506-2.121,4.539-4.313,4.539H89.516
								l2.586,22.537c0.285,2.508,2.217,4.541,4.311,4.541h132.414c2.092,0,4.027-2.033,4.313-4.541l12.191-106.434
								C245.615,131.157,243.83,129.124,241.346,129.124z"/>
						</g>
					</g>
				</g>
				<g>
					<g>
						<g>
							<path style="fill:#B9B0D7;" d="M241.346,129.124h-8.557l-9.322,96.555c-0.244,2.508-2.18,4.539-4.32,4.539H90.967
								l1.135,9.879c0.285,2.508,2.217,4.541,4.311,4.541h132.414c2.092,0,4.027-2.033,4.313-4.541l12.191-106.434
								C245.615,131.157,243.83,129.124,241.346,129.124z"/>
						</g>
					</g>
				</g>
				<g>
					<g>
						<path style="fill:#FFFFFF;" d="M94.854,210.118c-1.252,0-2.322-0.943-2.459-2.215l-5.418-51.852
							c-0.141-1.357,0.844-2.572,2.199-2.713c1.361-0.137,2.576,0.842,2.717,2.201l5.422,51.852
							c0.141,1.357-0.844,2.572-2.203,2.713C95.025,210.114,94.939,210.118,94.854,210.118z"/>
					</g>
				</g>
			</g>
			<g>
				<g>
					<g>
						<path style="fill:#979BCD;" d="M118.266,230.692c0.096,1.365-0.766,2.475-1.926,2.475h-5.6c-1.156,0-2.199-1.109-2.316-2.475
							l-5.5-63.439c-0.119-1.363,0.834-2.471,2.117-2.471h6.211c1.293,0,2.416,1.107,2.512,2.471L118.266,230.692z"/>
					</g>
					<g>
						<path style="fill:#5C1F5B;" d="M116.34,235.638h-5.6c-2.449,0-4.549-2.08-4.779-4.732l-5.5-63.438
							c-0.117-1.367,0.326-2.711,1.221-3.686c0.869-0.949,2.063-1.471,3.359-1.471h6.211c2.604,0,4.787,2.092,4.979,4.766
							l4.498,63.441c0.104,1.408-0.359,2.775-1.266,3.744C118.639,235.15,117.527,235.638,116.34,235.638z M110.953,230.694h4.818
							l-4.475-63.266l-5.889-0.164l5.476,63.215C110.895,230.571,110.926,230.644,110.953,230.694z"/>
					</g>
				</g>
				<g>
					<g>
						<path style="fill:#979BCD;" d="M142.904,230.692c0.041,1.365-0.867,2.475-2.027,2.475h-5.596
							c-1.164,0-2.152-1.109-2.217-2.475l-3-63.439c-0.064-1.363,0.924-2.471,2.217-2.471h6.207c1.291,0,2.371,1.107,2.412,2.471
							L142.904,230.692z"/>
					</g>
					<g>
						<path style="fill:#5C1F5B;" d="M140.877,235.638h-5.596c-2.502,0-4.561-2.123-4.688-4.83l-2.996-63.438
							c-0.068-1.348,0.416-2.666,1.324-3.619c0.883-0.93,2.076-1.439,3.359-1.439h6.207c2.611,0,4.801,2.184,4.883,4.867
							l2.004,63.438c0.041,1.389-0.463,2.734-1.379,3.682C143.158,235.161,142.051,235.638,140.877,235.638z M135.518,230.694h4.889
							l-1.979-63.363l-5.889-0.072l2.992,63.318C135.545,230.645,135.541,230.679,135.518,230.694z"/>
					</g>
				</g>
				<g>
					<g>
						<path style="fill:#979BCD;" d="M167.541,230.692c-0.014,1.365-0.961,2.475-2.127,2.475h-5.594
							c-1.16,0-2.113-1.109-2.123-2.475l-0.498-63.439c-0.014-1.363,1.029-2.471,2.313-2.471h6.211c1.293,0,2.326,1.107,2.316,2.471
							L167.541,230.692z"/>
					</g>
					<g>
						<path style="fill:#5C1F5B;" d="M165.414,235.638h-5.594c-2.512,0-4.574-2.209-4.598-4.924l-0.498-63.439
							c-0.01-1.35,0.498-2.611,1.436-3.557c0.898-0.908,2.092-1.406,3.352-1.406h6.211c1.266,0,2.453,0.498,3.355,1.406
							c0.934,0.943,1.441,2.205,1.434,3.557l-0.5,63.439C169.99,233.429,167.926,235.638,165.414,235.638z M160.17,230.694h4.863
							l0.531-63.461l-6.053,0.02l0.658,63.42C160.17,230.681,160.17,230.689,160.17,230.694z"/>
					</g>
				</g>
				<g>
					<g>
						<path style="fill:#979BCD;" d="M192.18,230.692c-0.068,1.365-1.063,2.475-2.223,2.475h-5.596
							c-1.164,0-2.066-1.109-2.025-2.475l2-63.439c0.045-1.363,1.123-2.471,2.412-2.471h6.211c1.291,0,2.285,1.107,2.217,2.471
							L192.18,230.692z"/>
					</g>
					<g>
						<path style="fill:#5C1F5B;" d="M189.957,235.638h-5.596c-1.174,0-2.279-0.475-3.119-1.338
							c-0.92-0.949-1.418-2.291-1.377-3.684l1.998-63.439c0.092-2.684,2.281-4.865,4.885-4.865h6.211
							c1.283,0,2.475,0.51,3.359,1.439c0.906,0.953,1.393,2.271,1.328,3.621l-3.002,63.436
							C194.514,233.519,192.455,235.638,189.957,235.638z M184.811,230.694h4.834l3.057-63.441h-5.953L184.811,230.694z"/>
					</g>
				</g>
				<g>
					<g>
						<path style="fill:#979BCD;" d="M216.813,230.692c-0.119,1.365-1.152,2.475-2.318,2.475H208.9c-1.16,0-2.027-1.109-1.928-2.475
							l4.498-63.439c0.1-1.363,1.225-2.471,2.512-2.471h6.211c1.293,0,2.236,1.107,2.119,2.471L216.813,230.692z"/>
					</g>
					<g>
						<path style="fill:#5C1F5B;" d="M214.494,235.638H208.9c-1.193,0-2.303-0.488-3.129-1.375
							c-0.906-0.973-1.365-2.336-1.266-3.746l4.498-63.438c0.191-2.676,2.381-4.768,4.979-4.768h6.211
							c1.297,0,2.49,0.521,3.361,1.469c0.893,0.975,1.336,2.316,1.219,3.688l-5.5,63.438
							C219.047,233.558,216.947,235.638,214.494,235.638z M209.449,230.694h4.832c0.033-0.051,0.061-0.123,0.068-0.215l5.482-63.227
							h-5.85L209.449,230.694z"/>
					</g>
				</g>
			</g>
		</g>
		<g>
			<g>
				<g>
					<path style="fill:#979BCD;" d="M106.877,132.564c-0.693,1.078-2.131,1.389-3.211,0.697l-5.195-3.34
						c-1.078-0.693-1.387-2.131-0.693-3.207l32.219-50.121c0.693-1.076,2.131-1.391,3.209-0.695l5.191,3.338
						c1.08,0.693,1.393,2.131,0.699,3.209L106.877,132.564z"/>
				</g>
				<g>
					<path style="fill:#5C1F5B;" d="M104.918,135.948c-0.889,0-1.754-0.254-2.508-0.734l-5.195-3.342
						c-1.043-0.67-1.764-1.707-2.027-2.92c-0.262-1.213-0.035-2.455,0.635-3.498l32.219-50.117c1.342-2.082,4.33-2.736,6.416-1.393
						l5.195,3.34c1.043,0.67,1.764,1.707,2.027,2.92c0.264,1.213,0.035,2.455-0.635,3.498l-32.219,50.117
						C107.969,135.153,106.51,135.948,104.918,135.948z M131.949,77.849L99.727,127.97l5.191,3.336c0.004,0,0.01,0,0.01,0
						l32.213-50.117L131.949,77.849z"/>
				</g>
			</g>
			<g>
				<g>
					<path style="fill:#979BCD;" d="M218.363,132.564c0.693,1.078,2.131,1.389,3.209,0.697l5.191-3.34
						c1.08-0.693,1.393-2.131,0.699-3.207l-32.219-50.121c-0.693-1.076-2.131-1.391-3.211-0.695l-5.195,3.338
						c-1.074,0.693-1.387,2.131-0.693,3.209L218.363,132.564z"/>
				</g>
				<g>
					<path style="fill:#5C1F5B;" d="M220.316,135.948L220.316,135.948c-1.586,0-3.047-0.795-3.908-2.125L184.189,83.7
						c-0.67-1.041-0.893-2.283-0.629-3.496c0.262-1.213,0.979-2.25,2.021-2.92l5.195-3.34c2.09-1.344,5.078-0.689,6.416,1.391
						l32.219,50.123c0.67,1.039,0.896,2.281,0.635,3.494c-0.264,1.213-0.984,2.25-2.027,2.92l-5.191,3.34
						C222.07,135.694,221.205,135.948,220.316,135.948z M193.289,77.849l-5.195,3.34l32.219,50.119l0.004,2.32v-2.32l5.191-3.338
						L193.289,77.849z"/>
				</g>
			</g>
		</g>
		<g>
			<g>
				<g>
					<path style="fill:#979BCD;" d="M72.949,149.653c-3.637,0-6.592-2.959-6.592-6.594v-12.984c0-3.635,2.955-6.592,6.592-6.592
						h179.342c3.631,0,6.588,2.957,6.588,6.592v12.984c0,3.635-2.957,6.594-6.588,6.594H72.949z"/>
				</g>
			</g>
			<g>
				<g>
					<path style="fill:#5C1F5B;" d="M252.291,125.804c2.357,0,4.266,1.914,4.266,4.271v12.984c0,2.359-1.908,4.271-4.266,4.271
						H72.949c-2.357,0-4.272-1.912-4.272-4.271v-12.984c0-2.357,1.914-4.271,4.272-4.271H252.291 M252.291,121.161H72.949
						c-4.914,0-8.914,4-8.914,8.914v12.984c0,4.916,4,8.914,8.914,8.914h179.342c4.91,0,8.908-3.998,8.908-8.914v-12.984
						C261.199,125.161,257.201,121.161,252.291,121.161L252.291,121.161z"/>
				</g>
			</g>
		</g>
		<g>
			<g>
				<path style="fill:#838DC6;" d="M252.291,125.804h-8.543v6.492c0,2.359-1.908,4.271-4.271,4.271H68.678v6.492
					c0,2.359,1.914,4.271,4.272,4.271h179.342c2.357,0,4.266-1.912,4.266-4.271v-12.984
					C256.557,127.718,254.648,125.804,252.291,125.804z"/>
			</g>
		</g>
	</g>
</g>
</svg>
